<?xml version="1.0" standalone="no"?>
<!DOCTYPE svg PUBLIC "-//W3C//DTD SVG 20010904//EN"
 "http://www.w3.org/TR/2001/REC-SVG-20010904/DTD/svg10.dtd">
<svg version="1.0" xmlns="http://www.w3.org/2000/svg"
 width="775.000000pt" height="571.000000pt" viewBox="0 0 775.000000 571.000000"
 preserveAspectRatio="xMidYMid meet">

<g transform="translate(0.000000,571.000000) scale(0.100000,-0.100000)"
fill="#000000" stroke="none">
<path d="M5041 4836 c-70 -176 -173 -319 -376 -521 l-170 -170 -3 262 -2 263
-255 -1 c-229 -1 -256 -2 -264 -18 -5 -9 -10 -208 -10 -441 -1 -233 -5 -427
-9 -431 -4 -3 -37 -23 -74 -44 l-68 -37 0 174 0 173 -256 -1 c-205 -1 -258 -4
-265 -15 -5 -8 -8 -133 -8 -279 0 -146 0 -270 0 -276 -1 -9 -127 -64 -147 -64
-2 0 -4 65 -4 145 l0 145 -260 0 -260 0 0 -219 0 -218 -107 -21 c-295 -57
-524 -74 -851 -64 -50 2 -53 3 -46 25 25 80 128 171 237 209 l67 23 0 67 c0
149 47 264 149 368 165 168 390 200 613 89 43 -22 82 -39 88 -39 6 0 10 32 10
80 0 162 45 276 149 381 204 204 518 207 723 7 l51 -50 61 15 c34 9 82 19 109
22 l47 6 0 80 c0 43 -1 79 -3 79 -1 0 -40 -5 -85 -10 l-82 -11 -53 40 c-123
92 -245 132 -406 133 -318 2 -585 -212 -657 -528 -2 -8 -17 -8 -56 2 -72 19
-219 19 -304 -1 -119 -27 -208 -78 -310 -180 -111 -110 -165 -208 -192 -349
l-17 -88 -50 -25 c-78 -40 -186 -154 -226 -240 -40 -84 -40 -85 -165 -53 -96
25 -183 55 -246 87 -52 25 -58 27 -58 14 0 -13 112 -88 187 -125 198 -97 406
-134 748 -134 403 1 773 66 1215 215 646 217 1177 533 1551 921 198 205 318
403 350 578 12 64 6 92 -10 50z m-61 -208 c-73 -167 -226 -362 -415 -529 -268
-238 -499 -390 -848 -559 -459 -223 -919 -364 -1407 -432 -149 -20 -639 -17
-760 5 -137 26 -260 62 -343 103 -98 47 -106 59 -20 30 39 -13 107 -32 150
-41 43 -9 85 -19 95 -21 12 -4 19 6 28 33 36 113 143 237 248 288 55 27 61 33
61 61 1 57 41 187 77 253 120 219 327 342 574 342 85 0 126 -5 201 -27 12 -3
19 8 28 51 31 139 146 301 273 383 158 103 359 132 551 81 58 -15 167 -74 217
-116 l41 -36 69 12 c38 6 74 11 80 11 7 0 10 -22 8 -62 l-3 -63 -50 -6 c-27
-4 -70 -12 -94 -19 l-44 -12 -46 45 c-105 102 -216 147 -365 147 -158 0 -268
-44 -375 -150 -107 -105 -161 -238 -161 -396 l0 -63 -70 35 c-94 46 -168 64
-265 64 -141 0 -262 -50 -364 -151 -103 -102 -149 -205 -158 -355 l-6 -91 -48
-12 c-93 -24 -191 -106 -241 -204 -15 -28 -24 -54 -22 -57 3 -3 58 -8 122 -11
219 -13 553 15 837 69 l90 17 3 218 2 217 240 0 240 0 0 -145 c0 -168 -8 -160
110 -116 l75 28 3 284 c2 211 5 285 15 291 6 4 117 8 244 8 l233 0 2 -180 3
-179 93 50 92 50 0 439 0 440 245 0 245 0 0 -271 0 -271 43 33 c23 19 101 92
173 164 129 129 228 251 286 353 17 29 32 51 35 48 2 -2 -10 -37 -27 -78z"/>
<path d="M4675 4099 l-70 -71 35 5 c94 13 224 -30 300 -99 113 -103 154 -251
114 -412 -9 -35 -14 -65 -12 -67 2 -3 38 -9 79 -15 231 -32 389 -231 352 -447
-30 -174 -151 -301 -318 -332 -34 -6 -187 -11 -367 -11 l-308 0 -2 635 -3 636
-95 -71 c-92 -69 -279 -191 -369 -241 l-44 -24 8 -467 7 -468 -91 0 -91 0 0
420 c0 231 -2 420 -5 420 -3 0 -49 -21 -103 -46 -53 -26 -162 -73 -242 -105
l-145 -58 -3 -316 -2 -315 -90 0 -90 0 0 284 0 283 -102 -29 c-87 -24 -293
-76 -375 -94 l-23 -4 0 -221 0 -220 -382 3 -383 3 -65 31 c-70 33 -150 106
-180 164 -25 48 -50 137 -50 176 0 29 -3 32 -37 37 -21 4 -53 10 -72 13 l-34
7 5 -79 c3 -43 15 -106 27 -139 23 -64 92 -173 138 -217 43 -40 138 -95 212
-120 l66 -23 1640 3 c1375 3 1650 6 1704 18 187 42 347 202 398 397 20 80 13
218 -17 302 -54 155 -185 283 -341 334 l-35 11 -1 83 c-2 222 -151 422 -368
497 -32 11 -68 20 -79 20 -13 0 -48 -27 -91 -71z"/>
<path d="M3275 2228 c-100 -37 -155 -112 -155 -211 0 -133 53 -186 245 -241
102 -30 132 -47 141 -80 14 -58 -48 -95 -131 -76 -56 13 -111 40 -154 76 -18
15 -36 23 -40 18 -53 -63 -91 -114 -91 -122 0 -19 135 -99 196 -115 69 -19
166 -22 227 -6 58 14 130 69 152 115 38 80 29 184 -21 243 -32 38 -105 74
-219 106 -101 29 -125 46 -125 85 0 31 23 56 62 65 40 10 130 -12 180 -44 l45
-29 43 60 c23 33 39 66 36 74 -3 8 -41 31 -83 52 -72 34 -86 37 -178 39 -56 1
-113 -2 -130 -9z"/>
<path d="M1380 1850 l0 -380 90 0 90 0 -2 378 -3 377 -87 3 -88 3 0 -381z"/>
<path d="M1737 2223 c-4 -3 -7 -174 -7 -380 l0 -373 90 0 90 0 2 227 3 226
124 -164 c69 -90 147 -192 174 -226 l49 -63 89 0 89 0 -2 378 -3 377 -87 3
-88 3 -2 -238 -3 -237 -180 237 -180 237 -76 0 c-42 0 -79 -3 -82 -7z"/>
<path d="M3822 1958 l3 -273 29 -58 c55 -112 171 -174 310 -165 85 6 156 35
209 86 84 81 97 141 97 447 l0 235 -90 0 -90 0 0 -242 c0 -218 -2 -247 -20
-285 -49 -109 -203 -112 -256 -5 -17 32 -19 67 -22 285 l-3 247 -85 0 -85 0 3
-272z"/>
<path d="M4638 2224 c-5 -4 -8 -175 -8 -381 l0 -373 90 0 90 0 0 120 0 120 54
0 55 0 82 -120 83 -120 109 0 109 0 -35 48 c-19 26 -61 85 -94 132 l-61 85 39
23 c58 35 91 98 97 188 9 140 -41 225 -150 259 -57 18 -446 34 -460 19z m415
-185 c26 -33 23 -111 -7 -146 -23 -26 -28 -28 -130 -31 l-106 -4 0 105 0 106
63 3 c93 4 159 -8 180 -33z"/>
<path d="M5417 2223 c-4 -3 -7 -174 -7 -380 l0 -373 285 0 285 0 0 75 0 75
-195 0 -195 0 0 75 0 75 170 0 170 0 0 75 0 75 -170 0 -170 0 0 75 0 75 185 0
185 0 0 80 0 80 -268 0 c-148 0 -272 -3 -275 -7z"/>
<path d="M6270 2015 l0 -95 -95 0 -95 0 0 -70 0 -69 93 -3 92 -3 3 -97 3 -98
74 0 74 0 3 98 3 97 93 3 92 3 0 69 0 70 -95 0 -95 0 0 95 0 95 -75 0 -75 0 0
-95z"/>
<path d="M2590 1795 l0 -75 195 0 195 0 0 75 0 75 -195 0 -195 0 0 -75z"/>
</g>
</svg>
