<?xml version="1.0" encoding="utf-8"?>
<svg version="1.0" width="1366.000000pt" height="600.000000pt" viewBox="18.99 25.32 1366 600" preserveAspectRatio="xMidYMid meet" xmlns="http://www.w3.org/2000/svg">
  <g transform="translate(0.000000,600.000000) scale(0.100000,-0.100000)" fill="#000000" stroke="none">
    <path d="M10060 5450 c-170 -401 -488 -811 -940 -1208 l-115 -101 -3 494 c-2 451 -4 494 -19 497 -9 2 -232 2 -495 0 l-478 -2 0 -838 0 -837 -147 -80 c-80 -44 -150 -81 -155 -83 -4 -2 -8 145 -8 327 l0 331 -490 0 -490 0 0 -551 0 -550 -32 -13 c-44 -18 -264 -96 -272 -96 -3 0 -6 126 -6 280 l0 280 -492 -2 -493 -3 -3 -417 c-2 -386 -4 -417 -20 -422 -33 -10 -338 -66 -469 -86 -403 -62 -757 -86 -1133 -77 -217 6 -308 11 -316 20 -7 7 66 133 109 190 97 127 233 218 405 267 l82 24 0 112 c0 126 18 247 53 349 146 428 579 711 1019 665 142 -15 239 -44 405 -125 96 -46 153 -69 156 -61 3 6 5 63 6 126 5 290 67 480 221 674 215 270 575 408 920 352 98 -16 216 -53 299 -96 80 -40 207 -137 275 -211 l56 -61 63 21 c104 34 182 51 261 58 l76 6 0 145 0 145 -84 -6 c-46 -4 -118 -14 -160 -23 l-76 -16 -45 40 c-157 138 -387 244 -613 283 -550 94 -1102 -188 -1347 -686 -50 -102 -105 -262 -105 -306 0 -23 1 -23 -95 1 -182 47 -403 46 -599 -1 -356 -85 -681 -345 -841 -674 -78 -161 -99 -237 -131 -463 -4 -28 -13 -36 -67 -63 -106 -54 -165 -96 -259 -187 -126 -122 -213 -258 -271 -424 -8 -22 -13 -22 -133 2 -231 48 -429 111 -616 198 -49 22 -88 37 -88 33 0 -27 195 -158 345 -231 267 -131 577 -209 1000 -252 188 -19 694 -16 920 6 1107 104 2300 483 3340 1061 1150 638 1966 1491 2110 2204 22 106 15 133 -15 61z" style="fill: rgb(81, 216, 175);"/>
    <path d="M9342 4060 c-132 -130 -148 -149 -120 -142 67 15 280 7 343 -12 250 -75 446 -273 517 -521 18 -65 22 -103 21 -200 -1 -104 -6 -137 -36 -243 -22 -81 -30 -125 -23 -127 6 -2 49 -6 96 -10 254 -19 414 -94 564 -265 73 -83 141 -219 162 -325 22 -108 15 -282 -16 -380 -60 -193 -202 -356 -386 -446 -154 -76 -117 -72 -826 -76 l-638 -4 -2 1220 -3 1219 -125 -95 c-233 -177 -459 -328 -720 -481 l-135 -79 1 -891 1 -892 -153 0 -154 0 -1 633 c0 560 -6 967 -13 974 -1 2 -89 -38 -195 -87 -226 -106 -464 -208 -648 -276 l-133 -49 0 -597 0 -598 -127 -2 c-71 -1 -139 -2 -153 -2 l-25 -1 -3 546 -2 547 -63 -20 c-241 -75 -595 -168 -822 -216 l-90 -18 -3 -423 -2 -422 -693 3 c-774 4 -735 1 -892 78 -233 115 -393 352 -412 610 l-6 87 -123 26 c-68 15 -130 30 -137 33 -47 17 -29 -251 27 -411 38 -109 64 -164 122 -250 150 -227 373 -378 649 -442 77 -17 200 -18 3165 -15 3369 3 3163 -1 3344 61 334 114 573 377 673 741 27 100 25 387 -5 492 -52 189 -145 349 -279 481 -124 122 -232 189 -388 242 l-80 27 -1 136 c-2 258 -73 450 -241 655 -147 179 -397 322 -613 351 l-45 6 -153 -150z" style="fill: rgb(12, 46, 138); stroke-width: 0px; stroke: rgb(186, 218, 85);"/>
  </g>
</svg>